<mxfile host="app.diagrams.net" modified="2021-02-04T09:29:13.497Z" agent="5.0 (Windows NT 10.0; Win64; x64) AppleWebKit/537.36 (KHTML, like Gecko) Chrome/88.0.4324.104 Safari/537.36" etag="RiBWqMMlH1x1IQcpUeBD" version="14.2.9" type="github">
  <diagram id="prtHgNgQTEPvFCAcTncT" name="Page-1">
    <mxGraphModel dx="1185" dy="635" grid="1" gridSize="10" guides="1" tooltips="1" connect="1" arrows="1" fold="1" page="1" pageScale="1" pageWidth="827" pageHeight="1169" math="0" shadow="0">
      <root>
        <mxCell id="0" />
        <mxCell id="1" parent="0" />
        <mxCell id="JIuMc8VZa3dmtPXG9sar-13" style="edgeStyle=orthogonalEdgeStyle;rounded=0;orthogonalLoop=1;jettySize=auto;html=1;entryX=0;entryY=0.5;entryDx=0;entryDy=0;" edge="1" parent="1" source="JIuMc8VZa3dmtPXG9sar-1" target="JIuMc8VZa3dmtPXG9sar-11">
          <mxGeometry relative="1" as="geometry" />
        </mxCell>
        <mxCell id="JIuMc8VZa3dmtPXG9sar-1" value="&lt;font style=&quot;font-size: 18px&quot;&gt;父T&lt;/font&gt;" style="ellipse;whiteSpace=wrap;html=1;" vertex="1" parent="1">
          <mxGeometry x="55" y="180" width="120" height="80" as="geometry" />
        </mxCell>
        <mxCell id="JIuMc8VZa3dmtPXG9sar-14" style="edgeStyle=orthogonalEdgeStyle;rounded=0;orthogonalLoop=1;jettySize=auto;html=1;" edge="1" parent="1" source="JIuMc8VZa3dmtPXG9sar-2" target="JIuMc8VZa3dmtPXG9sar-12">
          <mxGeometry relative="1" as="geometry" />
        </mxCell>
        <mxCell id="JIuMc8VZa3dmtPXG9sar-2" value="&lt;font style=&quot;font-size: 18px&quot;&gt;子T&lt;/font&gt;" style="ellipse;whiteSpace=wrap;html=1;" vertex="1" parent="1">
          <mxGeometry x="55" y="480" width="120" height="80" as="geometry" />
        </mxCell>
        <mxCell id="JIuMc8VZa3dmtPXG9sar-3" value="" style="endArrow=classic;html=1;entryX=0.5;entryY=1;entryDx=0;entryDy=0;" edge="1" parent="1" source="JIuMc8VZa3dmtPXG9sar-2" target="JIuMc8VZa3dmtPXG9sar-1">
          <mxGeometry width="50" height="50" relative="1" as="geometry">
            <mxPoint x="210" y="440" as="sourcePoint" />
            <mxPoint x="260" y="390" as="targetPoint" />
          </mxGeometry>
        </mxCell>
        <mxCell id="JIuMc8VZa3dmtPXG9sar-11" value="&lt;font style=&quot;font-size: 18px&quot;&gt;go程执行f函数&lt;/font&gt;" style="rounded=0;whiteSpace=wrap;html=1;" vertex="1" parent="1">
          <mxGeometry x="330" y="190" width="350" height="60" as="geometry" />
        </mxCell>
        <mxCell id="JIuMc8VZa3dmtPXG9sar-12" value="&lt;font style=&quot;font-size: 18px&quot;&gt;go程执行f函数&lt;/font&gt;" style="rounded=0;whiteSpace=wrap;html=1;" vertex="1" parent="1">
          <mxGeometry x="330" y="490" width="350" height="60" as="geometry" />
        </mxCell>
        <mxCell id="JIuMc8VZa3dmtPXG9sar-15" value="" style="startArrow=oval;startFill=0;startSize=7;endArrow=block;endFill=0;endSize=10;dashed=1;html=1;exitX=0;exitY=1;exitDx=0;exitDy=0;" edge="1" parent="1">
          <mxGeometry width="100" relative="1" as="geometry">
            <mxPoint x="330" y="549.9999999999999" as="sourcePoint" />
            <mxPoint x="154.40774066180018" y="717.2307231792381" as="targetPoint" />
          </mxGeometry>
        </mxCell>
        <mxCell id="JIuMc8VZa3dmtPXG9sar-16" value="1. 返回signal&lt;br&gt;继续创建go程" style="text;html=1;align=center;verticalAlign=middle;resizable=0;points=[];autosize=1;" vertex="1" parent="1">
          <mxGeometry x="205" y="595" width="90" height="30" as="geometry" />
        </mxCell>
        <mxCell id="JIuMc8VZa3dmtPXG9sar-17" value="" style="startArrow=oval;startFill=0;startSize=7;endArrow=block;endFill=0;endSize=10;dashed=1;html=1;entryX=0;entryY=1;entryDx=0;entryDy=0;exitX=0;exitY=0;exitDx=0;exitDy=0;" edge="1" parent="1" source="JIuMc8VZa3dmtPXG9sar-12" target="JIuMc8VZa3dmtPXG9sar-11">
          <mxGeometry width="100" relative="1" as="geometry">
            <mxPoint x="280" y="480" as="sourcePoint" />
            <mxPoint x="380" y="480" as="targetPoint" />
          </mxGeometry>
        </mxCell>
        <mxCell id="JIuMc8VZa3dmtPXG9sar-18" value="2. 阻塞等待&lt;br&gt;父test" style="text;html=1;align=center;verticalAlign=middle;resizable=0;points=[];autosize=1;" vertex="1" parent="1">
          <mxGeometry x="270" y="375" width="80" height="30" as="geometry" />
        </mxCell>
        <mxCell id="JIuMc8VZa3dmtPXG9sar-19" value="" style="startArrow=oval;startFill=0;startSize=7;endArrow=block;endFill=0;endSize=10;dashed=1;html=1;exitX=0;exitY=0;exitDx=0;exitDy=0;" edge="1" parent="1">
          <mxGeometry width="100" relative="1" as="geometry">
            <mxPoint x="560.0000000000002" y="490" as="sourcePoint" />
            <mxPoint x="560" y="250" as="targetPoint" />
          </mxGeometry>
        </mxCell>
        <mxCell id="JIuMc8VZa3dmtPXG9sar-20" value="3. 发送barrier信号" style="text;html=1;align=center;verticalAlign=middle;resizable=0;points=[];autosize=1;" vertex="1" parent="1">
          <mxGeometry x="380" y="375" width="110" height="20" as="geometry" />
        </mxCell>
        <mxCell id="JIuMc8VZa3dmtPXG9sar-22" value="" style="startArrow=oval;startFill=0;startSize=7;endArrow=block;endFill=0;endSize=10;dashed=1;html=1;" edge="1" parent="1">
          <mxGeometry width="100" relative="1" as="geometry">
            <mxPoint x="340" y="270" as="sourcePoint" />
            <mxPoint x="440" y="270" as="targetPoint" />
          </mxGeometry>
        </mxCell>
        <mxCell id="JIuMc8VZa3dmtPXG9sar-23" value="2.完成f函数&lt;br&gt;阻塞等待子test完成" style="text;html=1;align=center;verticalAlign=middle;resizable=0;points=[];autosize=1;" vertex="1" parent="1">
          <mxGeometry x="327" y="272" width="120" height="30" as="geometry" />
        </mxCell>
        <mxCell id="JIuMc8VZa3dmtPXG9sar-24" value="" style="startArrow=oval;startFill=0;startSize=7;endArrow=block;endFill=0;endSize=10;dashed=1;html=1;exitX=0.319;exitY=1.078;exitDx=0;exitDy=0;exitPerimeter=0;entryX=0.312;entryY=-0.006;entryDx=0;entryDy=0;entryPerimeter=0;" edge="1" parent="1" source="JIuMc8VZa3dmtPXG9sar-11" target="JIuMc8VZa3dmtPXG9sar-12">
          <mxGeometry width="100" relative="1" as="geometry">
            <mxPoint x="480.0000000000002" y="490" as="sourcePoint" />
            <mxPoint x="530" y="450" as="targetPoint" />
          </mxGeometry>
        </mxCell>
        <mxCell id="JIuMc8VZa3dmtPXG9sar-25" value="" style="startArrow=oval;startFill=0;startSize=7;endArrow=block;endFill=0;endSize=10;dashed=1;html=1;" edge="1" parent="1">
          <mxGeometry width="100" relative="1" as="geometry">
            <mxPoint x="453" y="479.9999999999999" as="sourcePoint" />
            <mxPoint x="553" y="479.9999999999999" as="targetPoint" />
          </mxGeometry>
        </mxCell>
        <mxCell id="JIuMc8VZa3dmtPXG9sar-26" value="4. 子test执行" style="text;html=1;align=center;verticalAlign=middle;resizable=0;points=[];autosize=1;" vertex="1" parent="1">
          <mxGeometry x="455" y="460" width="80" height="20" as="geometry" />
        </mxCell>
        <mxCell id="JIuMc8VZa3dmtPXG9sar-27" value="5. 发送signal信号" style="text;html=1;align=center;verticalAlign=middle;resizable=0;points=[];autosize=1;" vertex="1" parent="1">
          <mxGeometry x="500" y="375" width="110" height="20" as="geometry" />
        </mxCell>
        <mxCell id="JIuMc8VZa3dmtPXG9sar-29" value="" style="startArrow=oval;startFill=0;startSize=7;endArrow=block;endFill=0;endSize=10;dashed=1;html=1;" edge="1" parent="1">
          <mxGeometry width="100" relative="1" as="geometry">
            <mxPoint x="580" y="271.17" as="sourcePoint" />
            <mxPoint x="680" y="271.17" as="targetPoint" />
          </mxGeometry>
        </mxCell>
        <mxCell id="JIuMc8VZa3dmtPXG9sar-30" value="6.父test完成执行" style="text;html=1;align=center;verticalAlign=middle;resizable=0;points=[];autosize=1;" vertex="1" parent="1">
          <mxGeometry x="572" y="272" width="100" height="20" as="geometry" />
        </mxCell>
        <mxCell id="JIuMc8VZa3dmtPXG9sar-31" value="&lt;font style=&quot;font-size: 18px&quot;&gt;子子T&lt;/font&gt;" style="ellipse;whiteSpace=wrap;html=1;" vertex="1" parent="1">
          <mxGeometry x="50" y="705" width="120" height="80" as="geometry" />
        </mxCell>
        <mxCell id="JIuMc8VZa3dmtPXG9sar-32" value="" style="endArrow=classic;html=1;" edge="1" parent="1">
          <mxGeometry width="50" height="50" relative="1" as="geometry">
            <mxPoint x="109.58" y="705" as="sourcePoint" />
            <mxPoint x="110" y="560" as="targetPoint" />
          </mxGeometry>
        </mxCell>
      </root>
    </mxGraphModel>
  </diagram>
</mxfile>
